<svg xmlns="http://www.w3.org/2000/svg" xmlns:xlink="http://www.w3.org/1999/xlink" viewBox="0 0 500 500" width="500" height="500" preserveAspectRatio="xMidYMid meet" style="width: 100%; height: 100%; transform: translate3d(0px, 0px, 0px); content-visibility: visible;"><defs><clipPath id="__lottie_element_54"><rect width="500" height="500" x="0" y="0"/></clipPath><clipPath id="__lottie_element_57"><path d="M0,0 L500,0 L500,500 L0,500z"/></clipPath><clipPath id="__lottie_element_61"><path d="M0,0 L500,0 L500,500 L0,500z"/></clipPath><clipPath id="__lottie_element_65"><path d="M0,0 L500,0 L500,500 L0,500z"/></clipPath><clipPath id="__lottie_element_69"><path d="M0,0 L500,0 L500,500 L0,500z"/></clipPath><clipPath id="__lottie_element_73"><path d="M0,0 L500,0 L500,500 L0,500z"/></clipPath><g id="__lottie_element_84"><g class="primary design" transform="matrix(1,0,0,1,250,-150)" opacity="1" style="display: block;"><g opacity="1" transform="matrix(1,0,0,1,0,0)"><path fill="rgb(18,19,49)" fill-opacity="1" d=" M250,-250 C250,-250 250,250 250,250 C250,250 -250,250 -250,250 C-250,250 -250,-250 -250,-250 C-250,-250 250,-250 250,-250z"/><path stroke-linecap="butt" stroke-linejoin="miter" fill-opacity="0" stroke-miterlimit="4" stroke="rgb(18,19,49)" stroke-opacity="1" stroke-width="0" d=" M250,-250 C250,-250 250,250 250,250 C250,250 -250,250 -250,250 C-250,250 -250,-250 -250,-250 C-250,-250 250,-250 250,-250z"/></g></g></g><g id="__lottie_element_90"><g class="primary design" transform="matrix(1,0,0,1,250,-150)" opacity="1" style="display: block;"><g opacity="1" transform="matrix(1,0,0,1,0,0)"><path fill="rgb(18,19,49)" fill-opacity="1" d=" M250,-250 C250,-250 250,250 250,250 C250,250 -250,250 -250,250 C-250,250 -250,-250 -250,-250 C-250,-250 250,-250 250,-250z"/><path stroke-linecap="butt" stroke-linejoin="miter" fill-opacity="0" stroke-miterlimit="4" stroke="rgb(18,19,49)" stroke-opacity="1" stroke-width="0" d=" M250,-250 C250,-250 250,250 250,250 C250,250 -250,250 -250,250 C-250,250 -250,-250 -250,-250 C-250,-250 250,-250 250,-250z"/></g></g></g><mask id="__lottie_element_90_1" mask-type="alpha"><use xmlns:ns1="http://www.w3.org/1999/xlink" ns1:href="#__lottie_element_90"/></mask><mask id="__lottie_element_84_1" mask-type="alpha"><use xmlns:ns2="http://www.w3.org/1999/xlink" ns2:href="#__lottie_element_84"/></mask><clipPath id="__lottie_element_97"><path d="M0,0 L500,0 L500,500 L0,500z"/></clipPath><g id="__lottie_element_100"><g class="primary design" transform="matrix(1,0,0,1,250,-147.01864624023438)" opacity="1" style="display: block;"><g opacity="1" transform="matrix(1,0,0,1,0,0)"><path fill="rgb(18,19,49)" fill-opacity="1" d=" M250,-250 C250,-250 250,250 250,250 C250,250 -250,250 -250,250 C-250,250 -250,-250 -250,-250 C-250,-250 250,-250 250,-250z"/><path stroke-linecap="butt" stroke-linejoin="miter" fill-opacity="0" stroke-miterlimit="4" stroke="rgb(18,19,49)" stroke-opacity="1" stroke-width="0" d=" M250,-250 C250,-250 250,250 250,250 C250,250 -250,250 -250,250 C-250,250 -250,-250 -250,-250 C-250,-250 250,-250 250,-250z"/></g></g></g><mask id="__lottie_element_100_1" mask-type="alpha"><use xmlns:ns3="http://www.w3.org/1999/xlink" ns3:href="#__lottie_element_100"/></mask><g id="__lottie_element_115"><g class="primary design" transform="matrix(1,0,0,1,250,-150)" opacity="1" style="display: block;"><g opacity="1" transform="matrix(1,0,0,1,0,0)"><path fill="rgb(255,0,0)" fill-opacity="1" d=" M250,-250 C250,-250 250,250 250,250 C250,250 -250,250 -250,250 C-250,250 -250,-250 -250,-250 C-250,-250 250,-250 250,-250z"/><path stroke-linecap="butt" stroke-linejoin="miter" fill-opacity="0" stroke-miterlimit="4" stroke="rgb(18,19,49)" stroke-opacity="1" stroke-width="0" d=" M250,-250 C250,-250 250,250 250,250 C250,250 -250,250 -250,250 C-250,250 -250,-250 -250,-250 C-250,-250 250,-250 250,-250z"/></g></g></g><clipPath id="__lottie_element_141"><path d="M0,0 L500,0 L500,500 L0,500z"/></clipPath><mask id="__lottie_element_115_1" mask-type="alpha"><use xmlns:ns4="http://www.w3.org/1999/xlink" ns4:href="#__lottie_element_115"/></mask></defs><g clip-path="url(#__lottie_element_54)"><g clip-path="url(#__lottie_element_57)" transform="matrix(1,0,0,1,0,0)" opacity="0" style="display: block;"><g class="primary design" transform="matrix(20.829999923706055,0,0,20.829999923706055,-4957.498046875,-4957.498046875)" opacity="1" style="display: none;"><g opacity="1" transform="matrix(1,0,0,1,250,250)"><path fill="rgb(18,19,49)" fill-opacity="1" d=" M8.25,-8 C8.25,-8 7,-8 7,-8 C7,-8 0.75,-8 0.75,-8 C0.75,-8 0.75,-9.25 0.75,-9.25 C0.75,-9.65999984741211 0.4099999964237213,-10 0,-10 C-0.4099999964237213,-10 -0.75,-9.65999984741211 -0.75,-9.25 C-0.75,-9.25 -0.75,-8 -0.75,-8 C-0.75,-8 -7,-8 -7,-8 C-7,-8 -8.25,-8 -8.25,-8 C-8.65999984741211,-8 -9,-7.659999847412109 -9,-7.25 C-9,-6.840000152587891 -8.65999984741211,-6.5 -8.25,-6.5 C-8.25,-6.5 -7.670000076293945,-6.5 -7.670000076293945,-6.5 C-7.670000076293945,-6.5 -6.139999866485596,7.550000190734863 -6.139999866485596,7.550000190734863 C-5.989999771118164,8.949999809265137 -4.809999942779541,10 -3.4100000858306885,10 C-3.4100000858306885,10 3.4100000858306885,10 3.4100000858306885,10 C4.820000171661377,10 5.989999771118164,8.949999809265137 6.139999866485596,7.550000190734863 C6.139999866485596,7.550000190734863 7.670000076293945,-6.5 7.670000076293945,-6.5 C7.670000076293945,-6.5 8.25,-6.5 8.25,-6.5 C8.65999984741211,-6.5 9,-6.840000152587891 9,-7.25 C9,-7.659999847412109 8.65999984741211,-8 8.25,-8z M4.650000095367432,7.389999866485596 C4.579999923706055,8.020000457763672 4.050000190734863,8.5 3.4100000858306885,8.5 C3.4100000858306885,8.5 -3.4100000858306885,8.5 -3.4100000858306885,8.5 C-4.050000190734863,8.5 -4.579999923706055,8.020000457763672 -4.650000095367432,7.389999866485596 C-4.650000095367432,7.389999866485596 -5.730000019073486,-2.5 -5.730000019073486,-2.5 C-5.730000019073486,-2.5 5.730000019073486,-2.5 5.730000019073486,-2.5 C5.730000019073486,-2.5 4.650000095367432,7.389999866485596 4.650000095367432,7.389999866485596z M5.889999866485596,-4 C5.889999866485596,-4 -5.889999866485596,-4 -5.889999866485596,-4 C-5.889999866485596,-4 -6.159999847412109,-6.5 -6.159999847412109,-6.5 C-6.159999847412109,-6.5 6.170000076293945,-6.5 6.170000076293945,-6.5 C6.170000076293945,-6.5 5.889999866485596,-4 5.889999866485596,-4z"/></g><g opacity="1" transform="matrix(1,0,0,1,251.74000549316406,253.02000427246094)"><path fill="rgb(18,19,49)" fill-opacity="1" d=" M0,-3 C-0.4099999964237213,-3 -0.75,-2.6600000858306885 -0.75,-2.25 C-0.75,-2.25 -0.75,2.25 -0.75,2.25 C-0.75,2.6600000858306885 -0.4099999964237213,3 0,3 C0.4099999964237213,3 0.75,2.6600000858306885 0.75,2.25 C0.75,2.25 0.75,-2.25 0.75,-2.25 C0.75,-2.6600000858306885 0.41999998688697815,-3 0,-3z"/></g><g opacity="1" transform="matrix(1,0,0,1,248.25,253)"><path fill="rgb(18,19,49)" fill-opacity="1" d=" M0,-3 C-0.4099999964237213,-3 -0.75,-2.6600000858306885 -0.75,-2.25 C-0.75,-2.25 -0.75,2.25 -0.75,2.25 C-0.75,2.6600000858306885 -0.4099999964237213,3 0,3 C0.4099999964237213,3 0.75,2.6600000858306885 0.75,2.25 C0.75,2.25 0.75,-2.25 0.75,-2.25 C0.75,-2.6600000858306885 0.4099999964237213,-3 0,-3z"/></g></g><g class="primary design" transform="matrix(0.0033800657838582993,0.9999942779541016,-0.9999942779541016,0.0033800657838582993,630.79736328125,-294.83782958984375)" opacity="1" style="display: block;"><g opacity="1" transform="matrix(1,0,0,1,250.00399780273438,98.95999908447266)"><path stroke-linecap="round" stroke-linejoin="round" fill-opacity="0" stroke="rgb(18,19,49)" stroke-opacity="1" stroke-width="31.3" d=" M-171.87600708007812,0 C-171.87600708007812,0 171.87600708007812,0 171.87600708007812,0"/></g><g opacity="1" transform="matrix(1,0,0,1,250.00399780273438,78.12699890136719)"><path stroke-linecap="round" stroke-linejoin="round" fill-opacity="0" stroke="rgb(18,19,49)" stroke-opacity="1" stroke-width="31.3" d=" M0,-20.83300018310547 C0,-20.83300018310547 0,20.83300018310547 0,20.83300018310547"/></g></g><g class="primary design" transform="matrix(1,0,0,1,0,0)" opacity="1" style="display: block;"><g opacity="1" transform="matrix(1,0,0,1,249.9980010986328,270.8349914550781)"><path stroke-linecap="round" stroke-linejoin="round" fill-opacity="0" stroke="rgb(18,19,49)" stroke-opacity="1" stroke-width="31.3" d=" M36.29600143432617,88.95899963378906 C36.29600143432617,88.95899963378906 36.29600143432617,-4.791999816894531 36.29600143432617,-4.791999816894531 M-36.45800018310547,88.54299926757812 C-36.45800018310547,88.54299926757812 -36.45800018310547,-5.206999778747559 -36.45800018310547,-5.206999778747559 M-133.79400634765625,-88.54100036621094 C-133.79400634765625,-88.54100036621094 134.66299438476562,-88.54100036621094 134.66299438476562,-88.54100036621094 M-145.83299255371094,-171.875 C-145.83299255371094,-171.875 -112.43000030517578,134.72000122070312 -112.43000030517578,134.72000122070312 C-110.12699890136719,155.86000061035156 -92.2750015258789,171.875 -71.00900268554688,171.875 C-71.00900268554688,171.875 71.01000213623047,171.875 71.01000213623047,171.875 C92.27400207519531,171.875 110.12899780273438,155.86000061035156 112.43199920654297,134.72000122070312 C112.43199920654297,134.72000122070312 145.83299255371094,-171.875 145.83299255371094,-171.875 C145.83299255371094,-171.875 -145.83299255371094,-171.875 -145.83299255371094,-171.875z"/></g></g><g mask="url(#__lottie_element_84_1)" style="display: block;"><g class="primary design" transform="matrix(0.19215324521064758,0.981364905834198,-0.981364905834198,0.19215324521064758,-30.578292846679688,37.932395935058594)" opacity="1"><path fill="rgb(18,19,49)" fill-opacity="1" d=" M-40.48,-320.33 C-40.48,-320.33 11.32,-298.87 11.32,-298.87 C11.32,-298.87 69.28,-227.3 69.28,-227.3 C69.28,-227.3 36.19,-182.52 36.19,-182.52 C36.19,-182.52 -29.25,-159.49 -29.25,-159.49 C-29.25,-159.49 -92.37,-173.75 -92.37,-173.75 C-92.37,-173.75 -113.73,-247.08 -113.73,-247.08 C-113.73,-247.08 -92.28,-298.87 -92.28,-298.87 C-92.28,-298.87 -40.48,-320.33 -40.48,-320.33z"/><g opacity="1" transform="matrix(1,0,0,1,-48.191001892089844,-251.71099853515625)"><path fill="rgb(18,19,49)" fill-opacity="1" d=" M7.715000152587891,-68.61900329589844 C7.715000152587891,-68.61900329589844 59.51300048828125,-47.16400146484375 59.51300048828125,-47.16400146484375 C59.51300048828125,-47.16400146484375 117.46700286865234,24.41200065612793 117.46700286865234,24.41200065612793 C117.46700286865234,24.41200065612793 84.38300323486328,69.19100189208984 84.38300323486328,69.19100189208984 C84.38300323486328,69.19100189208984 18.93899917602539,92.21700286865234 18.93899917602539,92.21700286865234 C18.93899917602539,92.21700286865234 -44.183998107910156,77.95700073242188 -44.183998107910156,77.95700073242188 C-44.183998107910156,77.95700073242188 -65.54000091552734,4.635000228881836 -65.54000091552734,4.635000228881836 C-65.54000091552734,4.635000228881836 -44.08399963378906,-47.16400146484375 -44.08399963378906,-47.16400146484375 C-44.08399963378906,-47.16400146484375 7.715000152587891,-68.61900329589844 7.715000152587891,-68.61900329589844z"/><path stroke-linecap="round" stroke-linejoin="round" fill-opacity="0" stroke="rgb(18,19,49)" stroke-opacity="1" stroke-width="31.3" d=" M7.715000152587891,-68.61900329589844 C7.715000152587891,-68.61900329589844 59.51300048828125,-47.16400146484375 59.51300048828125,-47.16400146484375 C59.51300048828125,-47.16400146484375 117.46700286865234,24.41200065612793 117.46700286865234,24.41200065612793 C117.46700286865234,24.41200065612793 84.38300323486328,69.19100189208984 84.38300323486328,69.19100189208984 C84.38300323486328,69.19100189208984 18.93899917602539,92.21700286865234 18.93899917602539,92.21700286865234 C18.93899917602539,92.21700286865234 -44.183998107910156,77.95700073242188 -44.183998107910156,77.95700073242188 C-44.183998107910156,77.95700073242188 -65.54000091552734,4.635000228881836 -65.54000091552734,4.635000228881836 C-65.54000091552734,4.635000228881836 -44.08399963378906,-47.16400146484375 -44.08399963378906,-47.16400146484375 C-44.08399963378906,-47.16400146484375 7.715000152587891,-68.61900329589844 7.715000152587891,-68.61900329589844z"/></g></g></g><g mask="url(#__lottie_element_90_1)" style="display: block;"><g class="primary design" transform="matrix(-0.5015522837638855,-0.8651273250579834,0.8651273250579834,-0.5015522837638855,503.2205505371094,-37.40595245361328)" opacity="1"><path fill="rgb(18,19,49)" fill-opacity="1" d=" M31.44,-247.56 C31.44,-247.56 31.44,-183.8 31.44,-183.8 C31.44,-183.8 -32.33,-183.8 -32.33,-183.8 C-32.33,-183.8 -32.33,-247.56 -32.33,-247.56 C-32.33,-247.56 31.44,-247.56 31.44,-247.56z"/><g opacity="1" transform="matrix(1,0,0,1,-2.5,-211.5)"><path stroke-linecap="round" stroke-linejoin="round" fill-opacity="0" stroke="rgb(18,19,49)" stroke-opacity="1" stroke-width="31.3" d=" M33.941001892089844,-36.0620002746582 C33.941001892089844,-36.0620002746582 33.941001892089844,27.704999923706055 33.941001892089844,27.704999923706055 C33.941001892089844,27.704999923706055 -29.82699966430664,27.704999923706055 -29.82699966430664,27.704999923706055 C-29.82699966430664,27.704999923706055 -29.82699966430664,-36.0620002746582 -29.82699966430664,-36.0620002746582 C-29.82699966430664,-36.0620002746582 33.941001892089844,-36.0620002746582 33.941001892089844,-36.0620002746582z"/></g></g></g></g><g clip-path="url(#__lottie_element_61)" transform="matrix(1,0,0,1,0,0)" opacity="0" style="display: block;"><g class="primary design" transform="matrix(1,0,0,1,0,0)" opacity="1" style="display: block;"><g opacity="1" transform="matrix(1,0,0,1,249.9980010986328,270.8349914550781)"><path stroke-linecap="round" stroke-linejoin="round" fill-opacity="0" stroke="rgb(18,19,49)" stroke-opacity="1" stroke-width="31.3" d=" M36.29600143432617,90.1047134399414 C36.29600143432617,90.1047134399414 37.432945251464844,-1.6477705240249634 37.432945251464844,-1.6477705240249634 M-36.45800018310547,89.68871307373047 C-36.45800018310547,89.68871307373047 -37.59494400024414,-2.0671541690826416 -37.59494400024414,-2.0671541690826416 M-135.03016662597656,-85.04647827148438 C-135.03016662597656,-85.04647827148438 135.8989715576172,-85.04647827148438 135.8989715576172,-85.04647827148438 M-145.83299255371094,-166.88568115234375 C-145.56680297851562,-145.06735229492188 -112.82850646972656,135.3068084716797 -112.82850646972656,135.3068084716797 C-110.1010971069336,156.5623779296875 -92.2750015258789,171.875 -71.00900268554688,171.875 C-71.00900268554688,171.875 71.01000213623047,171.875 71.01000213623047,171.875 C92.27400207519531,171.875 109.50613403320312,155.9207763671875 112.3323745727539,135.3068084716797 C112.3323745727539,135.3068084716797 145.96630859375,-145.16697692871094 145.83299255371094,-166.88568115234375 C132.5166473388672,-166.88568115234375 -132.51565551757812,-166.88568115234375 -145.83299255371094,-166.88568115234375z"/></g></g><g mask="url(#__lottie_element_100_1)" style="display: block;"><g clip-path="url(#__lottie_element_97)" transform="matrix(1,0,0,1,0,0)" opacity="1"><g class="primary design" transform="matrix(-0.5226790308952332,-0.8525295257568359,0.8525295257568359,-0.5226790308952332,500.5032958984375,19.78876495361328)" opacity="1" style="display: block;"><path fill="rgb(18,19,49)" fill-opacity="1" d=" M31.44,-247.56 C31.44,-247.56 31.44,-183.8 31.44,-183.8 C31.44,-183.8 -32.33,-183.8 -32.33,-183.8 C-32.33,-183.8 -32.33,-247.56 -32.33,-247.56 C-32.33,-247.56 31.44,-247.56 31.44,-247.56z"/><g opacity="1" transform="matrix(1,0,0,1,-2.5,-211.5)"><path stroke-linecap="round" stroke-linejoin="round" fill-opacity="0" stroke="rgb(18,19,49)" stroke-opacity="1" stroke-width="31.3" d=" M33.941001892089844,-36.0620002746582 C33.941001892089844,-36.0620002746582 33.941001892089844,27.704999923706055 33.941001892089844,27.704999923706055 C33.941001892089844,27.704999923706055 -29.82699966430664,27.704999923706055 -29.82699966430664,27.704999923706055 C-29.82699966430664,27.704999923706055 -29.82699966430664,-36.0620002746582 -29.82699966430664,-36.0620002746582 C-29.82699966430664,-36.0620002746582 33.941001892089844,-36.0620002746582 33.941001892089844,-36.0620002746582z"/></g></g><g class="primary design" transform="matrix(-0.877196192741394,0.4801321029663086,-0.4801321029663086,-0.877196192741394,72.75907135009766,-73.97311401367188)" opacity="1" style="display: block;"><path fill="rgb(18,19,49)" fill-opacity="1" d=" M-40.48,-320.33 C-40.48,-320.33 11.32,-298.87 11.32,-298.87 C11.32,-298.87 69.28,-227.3 69.28,-227.3 C69.28,-227.3 36.19,-182.52 36.19,-182.52 C36.19,-182.52 -29.25,-159.49 -29.25,-159.49 C-29.25,-159.49 -92.37,-173.75 -92.37,-173.75 C-92.37,-173.75 -113.73,-247.08 -113.73,-247.08 C-113.73,-247.08 -92.28,-298.87 -92.28,-298.87 C-92.28,-298.87 -40.48,-320.33 -40.48,-320.33z"/><g opacity="1" transform="matrix(1,0,0,1,-48.191001892089844,-251.71099853515625)"><path fill="rgb(18,19,49)" fill-opacity="1" d=" M7.715000152587891,-68.61900329589844 C7.715000152587891,-68.61900329589844 59.51300048828125,-47.16400146484375 59.51300048828125,-47.16400146484375 C59.51300048828125,-47.16400146484375 117.46700286865234,24.41200065612793 117.46700286865234,24.41200065612793 C117.46700286865234,24.41200065612793 84.38300323486328,69.19100189208984 84.38300323486328,69.19100189208984 C84.38300323486328,69.19100189208984 18.93899917602539,92.21700286865234 18.93899917602539,92.21700286865234 C18.93899917602539,92.21700286865234 -44.183998107910156,77.95700073242188 -44.183998107910156,77.95700073242188 C-44.183998107910156,77.95700073242188 -65.54000091552734,4.635000228881836 -65.54000091552734,4.635000228881836 C-65.54000091552734,4.635000228881836 -44.08399963378906,-47.16400146484375 -44.08399963378906,-47.16400146484375 C-44.08399963378906,-47.16400146484375 7.715000152587891,-68.61900329589844 7.715000152587891,-68.61900329589844z"/><path stroke-linecap="round" stroke-linejoin="round" fill-opacity="0" stroke="rgb(18,19,49)" stroke-opacity="1" stroke-width="31.3" d=" M7.715000152587891,-68.61900329589844 C7.715000152587891,-68.61900329589844 59.51300048828125,-47.16400146484375 59.51300048828125,-47.16400146484375 C59.51300048828125,-47.16400146484375 117.46700286865234,24.41200065612793 117.46700286865234,24.41200065612793 C117.46700286865234,24.41200065612793 84.38300323486328,69.19100189208984 84.38300323486328,69.19100189208984 C84.38300323486328,69.19100189208984 18.93899917602539,92.21700286865234 18.93899917602539,92.21700286865234 C18.93899917602539,92.21700286865234 -44.183998107910156,77.95700073242188 -44.183998107910156,77.95700073242188 C-44.183998107910156,77.95700073242188 -65.54000091552734,4.635000228881836 -65.54000091552734,4.635000228881836 C-65.54000091552734,4.635000228881836 -44.08399963378906,-47.16400146484375 -44.08399963378906,-47.16400146484375 C-44.08399963378906,-47.16400146484375 7.715000152587891,-68.61900329589844 7.715000152587891,-68.61900329589844z"/></g></g><g class="primary design" transform="matrix(-0.8571673035621643,0.5150380730628967,-0.5150380730628967,-0.8571673035621643,141.42652893066406,96.4967041015625)" opacity="1" style="display: none;"><path fill="rgb(18,19,49)" fill-opacity="1" d=" M48.89,-262.89 C48.89,-262.89 48.89,-160.11 48.89,-160.11 C48.89,-160.11 -53.89,-160.11 -53.89,-160.11 C-53.89,-160.11 -53.89,-262.89 -53.89,-262.89 C-53.89,-262.89 48.89,-262.89 48.89,-262.89z"/><g opacity="1" transform="matrix(1,0,0,1,-2.5,-211.5)"><path stroke-linecap="round" stroke-linejoin="round" fill-opacity="0" stroke="rgb(18,19,49)" stroke-opacity="1" stroke-width="31.3" d=" M51.393001556396484,-51.393001556396484 C51.393001556396484,-51.393001556396484 51.393001556396484,51.393001556396484 51.393001556396484,51.393001556396484 C51.393001556396484,51.393001556396484 -51.393001556396484,51.393001556396484 -51.393001556396484,51.393001556396484 C-51.393001556396484,51.393001556396484 -51.393001556396484,-51.393001556396484 -51.393001556396484,-51.393001556396484 C-51.393001556396484,-51.393001556396484 51.393001556396484,-51.393001556396484 51.393001556396484,-51.393001556396484z"/></g></g><g class="primary design" transform="matrix(-0.8571673035621643,0.5150380730628967,-0.5150380730628967,-0.8571673035621643,141.42652893066406,96.4967041015625)" opacity="1" style="display: none;"><path fill="rgb(18,19,49)" fill-opacity="1" d=" M48.89,-262.89 C48.89,-262.89 48.89,-160.11 48.89,-160.11 C48.89,-160.11 -53.89,-160.11 -53.89,-160.11 C-53.89,-160.11 -53.89,-262.89 -53.89,-262.89 C-53.89,-262.89 48.89,-262.89 48.89,-262.89z"/><g opacity="1" transform="matrix(1,0,0,1,-2.5,-211.5)"><path stroke-linecap="round" stroke-linejoin="round" fill-opacity="0" stroke="rgb(18,19,49)" stroke-opacity="1" stroke-width="31.3" d=" M51.393001556396484,-51.393001556396484 C51.393001556396484,-51.393001556396484 51.393001556396484,51.393001556396484 51.393001556396484,51.393001556396484 C51.393001556396484,51.393001556396484 -51.393001556396484,51.393001556396484 -51.393001556396484,51.393001556396484 C-51.393001556396484,51.393001556396484 -51.393001556396484,-51.393001556396484 -51.393001556396484,-51.393001556396484 C-51.393001556396484,-51.393001556396484 51.393001556396484,-51.393001556396484 51.393001556396484,-51.393001556396484z"/></g></g></g></g></g><g clip-path="url(#__lottie_element_65)" transform="matrix(1,0,0,1,0,0)" opacity="0" style="display: block;"><g class="primary design" transform="matrix(20.829999923706055,0,0,20.829999923706055,-4957.498046875,-4957.498046875)" opacity="1" style="display: none;"><g opacity="1" transform="matrix(1,0,0,1,250,250)"><path fill="rgb(18,19,49)" fill-opacity="1" d=" M8.25,-8 C8.25,-8 7,-8 7,-8 C7,-8 0.75,-8 0.75,-8 C0.75,-8 0.75,-9.25 0.75,-9.25 C0.75,-9.65999984741211 0.4099999964237213,-10 0,-10 C-0.4099999964237213,-10 -0.75,-9.65999984741211 -0.75,-9.25 C-0.75,-9.25 -0.75,-8 -0.75,-8 C-0.75,-8 -7,-8 -7,-8 C-7,-8 -8.25,-8 -8.25,-8 C-8.65999984741211,-8 -9,-7.659999847412109 -9,-7.25 C-9,-6.840000152587891 -8.65999984741211,-6.5 -8.25,-6.5 C-8.25,-6.5 -7.670000076293945,-6.5 -7.670000076293945,-6.5 C-7.670000076293945,-6.5 -6.139999866485596,7.550000190734863 -6.139999866485596,7.550000190734863 C-5.989999771118164,8.949999809265137 -4.809999942779541,10 -3.4100000858306885,10 C-3.4100000858306885,10 3.4100000858306885,10 3.4100000858306885,10 C4.820000171661377,10 5.989999771118164,8.949999809265137 6.139999866485596,7.550000190734863 C6.139999866485596,7.550000190734863 7.670000076293945,-6.5 7.670000076293945,-6.5 C7.670000076293945,-6.5 8.25,-6.5 8.25,-6.5 C8.65999984741211,-6.5 9,-6.840000152587891 9,-7.25 C9,-7.659999847412109 8.65999984741211,-8 8.25,-8z M4.650000095367432,7.389999866485596 C4.579999923706055,8.020000457763672 4.050000190734863,8.5 3.4100000858306885,8.5 C3.4100000858306885,8.5 -3.4100000858306885,8.5 -3.4100000858306885,8.5 C-4.050000190734863,8.5 -4.579999923706055,8.020000457763672 -4.650000095367432,7.389999866485596 C-4.650000095367432,7.389999866485596 -5.730000019073486,-2.5 -5.730000019073486,-2.5 C-5.730000019073486,-2.5 5.730000019073486,-2.5 5.730000019073486,-2.5 C5.730000019073486,-2.5 4.650000095367432,7.389999866485596 4.650000095367432,7.389999866485596z M5.889999866485596,-4 C5.889999866485596,-4 -5.889999866485596,-4 -5.889999866485596,-4 C-5.889999866485596,-4 -6.159999847412109,-6.5 -6.159999847412109,-6.5 C-6.159999847412109,-6.5 6.170000076293945,-6.5 6.170000076293945,-6.5 C6.170000076293945,-6.5 5.889999866485596,-4 5.889999866485596,-4z"/></g><g opacity="1" transform="matrix(1,0,0,1,251.74000549316406,253.02000427246094)"><path fill="rgb(18,19,49)" fill-opacity="1" d=" M0,-3 C-0.4099999964237213,-3 -0.75,-2.6600000858306885 -0.75,-2.25 C-0.75,-2.25 -0.75,2.25 -0.75,2.25 C-0.75,2.6600000858306885 -0.4099999964237213,3 0,3 C0.4099999964237213,3 0.75,2.6600000858306885 0.75,2.25 C0.75,2.25 0.75,-2.25 0.75,-2.25 C0.75,-2.6600000858306885 0.41999998688697815,-3 0,-3z"/></g><g opacity="1" transform="matrix(1,0,0,1,248.25,253)"><path fill="rgb(18,19,49)" fill-opacity="1" d=" M0,-3 C-0.4099999964237213,-3 -0.75,-2.6600000858306885 -0.75,-2.25 C-0.75,-2.25 -0.75,2.25 -0.75,2.25 C-0.75,2.6600000858306885 -0.4099999964237213,3 0,3 C0.4099999964237213,3 0.75,2.6600000858306885 0.75,2.25 C0.75,2.25 0.75,-2.25 0.75,-2.25 C0.75,-2.6600000858306885 0.4099999964237213,-3 0,-3z"/></g></g><g class="primary design" transform="matrix(0.000052850318752462044,1,-1,0.000052850318752462044,634.9205322265625,-294.51025390625)" opacity="1" style="display: block;"><g opacity="1" transform="matrix(1,0,0,1,250.00399780273438,98.95999908447266)"><path stroke-linecap="round" stroke-linejoin="round" fill-opacity="0" stroke="rgb(18,19,49)" stroke-opacity="1" stroke-width="31.3" d=" M-171.87600708007812,0 C-171.87600708007812,0 171.87600708007812,0 171.87600708007812,0"/></g><g opacity="1" transform="matrix(1,0,0,1,250.00399780273438,78.12699890136719)"><path stroke-linecap="round" stroke-linejoin="round" fill-opacity="0" stroke="rgb(18,19,49)" stroke-opacity="1" stroke-width="31.3" d=" M0,-20.83300018310547 C0,-20.83300018310547 0,20.83300018310547 0,20.83300018310547"/></g></g><g class="primary design" transform="matrix(1,0,0,1,0,0)" opacity="1" style="display: block;"><g opacity="1" transform="matrix(1,0,0,1,249.9980010986328,270.8349914550781)"><path stroke-linecap="round" stroke-linejoin="round" fill-opacity="0" stroke="rgb(18,19,49)" stroke-opacity="1" stroke-width="31.3" d=" M36.29600143432617,88.95899963378906 C36.29600143432617,88.95899963378906 36.29600143432617,-4.791999816894531 36.29600143432617,-4.791999816894531 M-36.45800018310547,88.54299926757812 C-36.45800018310547,88.54299926757812 -36.45800018310547,-5.206999778747559 -36.45800018310547,-5.206999778747559 M-133.79400634765625,-88.54100036621094 C-133.79400634765625,-88.54100036621094 134.66299438476562,-88.54100036621094 134.66299438476562,-88.54100036621094 M-145.83299255371094,-171.875 C-145.83299255371094,-171.875 -112.43000030517578,134.72000122070312 -112.43000030517578,134.72000122070312 C-110.12699890136719,155.86000061035156 -92.2750015258789,171.875 -71.00900268554688,171.875 C-71.00900268554688,171.875 71.01000213623047,171.875 71.01000213623047,171.875 C92.27400207519531,171.875 110.12899780273438,155.86000061035156 112.43199920654297,134.72000122070312 C112.43199920654297,134.72000122070312 145.83299255371094,-171.875 145.83299255371094,-171.875 C145.83299255371094,-171.875 -145.83299255371094,-171.875 -145.83299255371094,-171.875z"/></g></g><g mask="url(#__lottie_element_115_1)" style="display: block;"><g clip-path="url(#__lottie_element_141)" transform="matrix(1,0,0,1,0,0)" opacity="1"><g class="primary design" transform="matrix(-0.9834831357002258,-0.18099981546401978,0.18099981546401978,-0.9834831357002258,212.32275390625,-147.75091552734375)" opacity="1" style="display: block;"><path fill="rgb(18,19,49)" fill-opacity="1" d=" M-40.48,-320.33 C-40.48,-320.33 11.32,-298.87 11.32,-298.87 C11.32,-298.87 69.28,-227.3 69.28,-227.3 C69.28,-227.3 36.19,-182.52 36.19,-182.52 C36.19,-182.52 -29.25,-159.49 -29.25,-159.49 C-29.25,-159.49 -92.37,-173.75 -92.37,-173.75 C-92.37,-173.75 -113.73,-247.08 -113.73,-247.08 C-113.73,-247.08 -92.28,-298.87 -92.28,-298.87 C-92.28,-298.87 -40.48,-320.33 -40.48,-320.33z"/><g opacity="1" transform="matrix(1,0,0,1,-48.191001892089844,-251.71099853515625)"><path fill="rgb(18,19,49)" fill-opacity="1" d=" M7.715000152587891,-68.61900329589844 C7.715000152587891,-68.61900329589844 59.51300048828125,-47.16400146484375 59.51300048828125,-47.16400146484375 C59.51300048828125,-47.16400146484375 117.46700286865234,24.41200065612793 117.46700286865234,24.41200065612793 C117.46700286865234,24.41200065612793 84.38300323486328,69.19100189208984 84.38300323486328,69.19100189208984 C84.38300323486328,69.19100189208984 18.93899917602539,92.21700286865234 18.93899917602539,92.21700286865234 C18.93899917602539,92.21700286865234 -44.183998107910156,77.95700073242188 -44.183998107910156,77.95700073242188 C-44.183998107910156,77.95700073242188 -65.54000091552734,4.635000228881836 -65.54000091552734,4.635000228881836 C-65.54000091552734,4.635000228881836 -44.08399963378906,-47.16400146484375 -44.08399963378906,-47.16400146484375 C-44.08399963378906,-47.16400146484375 7.715000152587891,-68.61900329589844 7.715000152587891,-68.61900329589844z"/><path stroke-linecap="round" stroke-linejoin="round" fill-opacity="0" stroke="rgb(18,19,49)" stroke-opacity="1" stroke-width="31.3" d=" M7.715000152587891,-68.61900329589844 C7.715000152587891,-68.61900329589844 59.51300048828125,-47.16400146484375 59.51300048828125,-47.16400146484375 C59.51300048828125,-47.16400146484375 117.46700286865234,24.41200065612793 117.46700286865234,24.41200065612793 C117.46700286865234,24.41200065612793 84.38300323486328,69.19100189208984 84.38300323486328,69.19100189208984 C84.38300323486328,69.19100189208984 18.93899917602539,92.21700286865234 18.93899917602539,92.21700286865234 C18.93899917602539,92.21700286865234 -44.183998107910156,77.95700073242188 -44.183998107910156,77.95700073242188 C-44.183998107910156,77.95700073242188 -65.54000091552734,4.635000228881836 -65.54000091552734,4.635000228881836 C-65.54000091552734,4.635000228881836 -44.08399963378906,-47.16400146484375 -44.08399963378906,-47.16400146484375 C-44.08399963378906,-47.16400146484375 7.715000152587891,-68.61900329589844 7.715000152587891,-68.61900329589844z"/></g></g><g class="primary design" transform="matrix(-0.7071058750152588,-0.707107663154602,0.707107663154602,-0.7071058750152588,469.2855224609375,-53.82066345214844)" opacity="1" style="display: none;"><path fill="rgb(18,19,49)" fill-opacity="1" d=" M31.44,-247.56 C31.44,-247.56 31.44,-183.8 31.44,-183.8 C31.44,-183.8 -32.33,-183.8 -32.33,-183.8 C-32.33,-183.8 -32.33,-247.56 -32.33,-247.56 C-32.33,-247.56 31.44,-247.56 31.44,-247.56z"/><g opacity="1" transform="matrix(1,0,0,1,-2.5,-211.5)"><path stroke-linecap="round" stroke-linejoin="round" fill-opacity="0" stroke="rgb(18,19,49)" stroke-opacity="1" stroke-width="31.3" d=" M33.941001892089844,-36.0620002746582 C33.941001892089844,-36.0620002746582 33.941001892089844,27.704999923706055 33.941001892089844,27.704999923706055 C33.941001892089844,27.704999923706055 -29.82699966430664,27.704999923706055 -29.82699966430664,27.704999923706055 C-29.82699966430664,27.704999923706055 -29.82699966430664,-36.0620002746582 -29.82699966430664,-36.0620002746582 C-29.82699966430664,-36.0620002746582 33.941001892089844,-36.0620002746582 33.941001892089844,-36.0620002746582z"/></g></g></g></g></g><g clip-path="url(#__lottie_element_69)" transform="matrix(1,0,0,1,0,0)" opacity="1" style="display: block;"><g class="primary design" transform="matrix(20.829999923706055,0,0,20.829999923706055,-4957.498046875,-4957.498046875)" opacity="1" style="display: none;"><g opacity="1" transform="matrix(1,0,0,1,250,250)"><path fill="rgb(18,19,49)" fill-opacity="1" d=" M8.25,-8 C8.25,-8 7,-8 7,-8 C7,-8 0.75,-8 0.75,-8 C0.75,-8 0.75,-9.25 0.75,-9.25 C0.75,-9.65999984741211 0.4099999964237213,-10 0,-10 C-0.4099999964237213,-10 -0.75,-9.65999984741211 -0.75,-9.25 C-0.75,-9.25 -0.75,-8 -0.75,-8 C-0.75,-8 -7,-8 -7,-8 C-7,-8 -8.25,-8 -8.25,-8 C-8.65999984741211,-8 -9,-7.659999847412109 -9,-7.25 C-9,-6.840000152587891 -8.65999984741211,-6.5 -8.25,-6.5 C-8.25,-6.5 -7.670000076293945,-6.5 -7.670000076293945,-6.5 C-7.670000076293945,-6.5 -6.139999866485596,7.550000190734863 -6.139999866485596,7.550000190734863 C-5.989999771118164,8.949999809265137 -4.809999942779541,10 -3.4100000858306885,10 C-3.4100000858306885,10 3.4100000858306885,10 3.4100000858306885,10 C4.820000171661377,10 5.989999771118164,8.949999809265137 6.139999866485596,7.550000190734863 C6.139999866485596,7.550000190734863 7.670000076293945,-6.5 7.670000076293945,-6.5 C7.670000076293945,-6.5 8.25,-6.5 8.25,-6.5 C8.65999984741211,-6.5 9,-6.840000152587891 9,-7.25 C9,-7.659999847412109 8.65999984741211,-8 8.25,-8z M4.650000095367432,7.389999866485596 C4.579999923706055,8.020000457763672 4.050000190734863,8.5 3.4100000858306885,8.5 C3.4100000858306885,8.5 -3.4100000858306885,8.5 -3.4100000858306885,8.5 C-4.050000190734863,8.5 -4.579999923706055,8.020000457763672 -4.650000095367432,7.389999866485596 C-4.650000095367432,7.389999866485596 -5.730000019073486,-2.5 -5.730000019073486,-2.5 C-5.730000019073486,-2.5 5.730000019073486,-2.5 5.730000019073486,-2.5 C5.730000019073486,-2.5 4.650000095367432,7.389999866485596 4.650000095367432,7.389999866485596z M5.889999866485596,-4 C5.889999866485596,-4 -5.889999866485596,-4 -5.889999866485596,-4 C-5.889999866485596,-4 -6.159999847412109,-6.5 -6.159999847412109,-6.5 C-6.159999847412109,-6.5 6.170000076293945,-6.5 6.170000076293945,-6.5 C6.170000076293945,-6.5 5.889999866485596,-4 5.889999866485596,-4z"/></g><g opacity="1" transform="matrix(1,0,0,1,251.74000549316406,253.02000427246094)"><path fill="rgb(18,19,49)" fill-opacity="1" d=" M0,-3 C-0.4099999964237213,-3 -0.75,-2.6600000858306885 -0.75,-2.25 C-0.75,-2.25 -0.75,2.25 -0.75,2.25 C-0.75,2.6600000858306885 -0.4099999964237213,3 0,3 C0.4099999964237213,3 0.75,2.6600000858306885 0.75,2.25 C0.75,2.25 0.75,-2.25 0.75,-2.25 C0.75,-2.6600000858306885 0.41999998688697815,-3 0,-3z"/></g><g opacity="1" transform="matrix(1,0,0,1,248.25,253)"><path fill="rgb(18,19,49)" fill-opacity="1" d=" M0,-3 C-0.4099999964237213,-3 -0.75,-2.6600000858306885 -0.75,-2.25 C-0.75,-2.25 -0.75,2.25 -0.75,2.25 C-0.75,2.6600000858306885 -0.4099999964237213,3 0,3 C0.4099999964237213,3 0.75,2.6600000858306885 0.75,2.25 C0.75,2.25 0.75,-2.25 0.75,-2.25 C0.75,-2.6600000858306885 0.4099999964237213,-3 0,-3z"/></g></g><g class="primary design" transform="matrix(20.829999923706055,0,0,20.829999923706055,-4957.498046875,-4957.498046875)" opacity="1" style="display: none;"><g opacity="1" transform="matrix(1,0,0,1,250,250)"><path fill="rgb(18,19,49)" fill-opacity="1" d=" M8.25,-8 C8.25,-8 7,-8 7,-8 C7,-8 0.75,-8 0.75,-8 C0.75,-8 0.75,-9.25 0.75,-9.25 C0.75,-9.65999984741211 0.4099999964237213,-10 0,-10 C-0.4099999964237213,-10 -0.75,-9.65999984741211 -0.75,-9.25 C-0.75,-9.25 -0.75,-8 -0.75,-8 C-0.75,-8 -7,-8 -7,-8 C-7,-8 -8.25,-8 -8.25,-8 C-8.65999984741211,-8 -9,-7.659999847412109 -9,-7.25 C-9,-6.840000152587891 -8.65999984741211,-6.5 -8.25,-6.5 C-8.25,-6.5 -7.670000076293945,-6.5 -7.670000076293945,-6.5 C-7.670000076293945,-6.5 -6.139999866485596,7.550000190734863 -6.139999866485596,7.550000190734863 C-5.989999771118164,8.949999809265137 -4.809999942779541,10 -3.4100000858306885,10 C-3.4100000858306885,10 3.4100000858306885,10 3.4100000858306885,10 C4.820000171661377,10 5.989999771118164,8.949999809265137 6.139999866485596,7.550000190734863 C6.139999866485596,7.550000190734863 7.670000076293945,-6.5 7.670000076293945,-6.5 C7.670000076293945,-6.5 8.25,-6.5 8.25,-6.5 C8.65999984741211,-6.5 9,-6.840000152587891 9,-7.25 C9,-7.659999847412109 8.65999984741211,-8 8.25,-8z M4.650000095367432,7.389999866485596 C4.579999923706055,8.020000457763672 4.050000190734863,8.5 3.4100000858306885,8.5 C3.4100000858306885,8.5 -3.4100000858306885,8.5 -3.4100000858306885,8.5 C-4.050000190734863,8.5 -4.579999923706055,8.020000457763672 -4.650000095367432,7.389999866485596 C-4.650000095367432,7.389999866485596 -5.730000019073486,-2.5 -5.730000019073486,-2.5 C-5.730000019073486,-2.5 5.730000019073486,-2.5 5.730000019073486,-2.5 C5.730000019073486,-2.5 4.650000095367432,7.389999866485596 4.650000095367432,7.389999866485596z M5.889999866485596,-4 C5.889999866485596,-4 -5.889999866485596,-4 -5.889999866485596,-4 C-5.889999866485596,-4 -6.159999847412109,-6.5 -6.159999847412109,-6.5 C-6.159999847412109,-6.5 6.170000076293945,-6.5 6.170000076293945,-6.5 C6.170000076293945,-6.5 5.889999866485596,-4 5.889999866485596,-4z"/></g><g opacity="1" transform="matrix(1,0,0,1,251.74000549316406,253.02000427246094)"><path fill="rgb(18,19,49)" fill-opacity="1" d=" M0,-3 C-0.4099999964237213,-3 -0.75,-2.6600000858306885 -0.75,-2.25 C-0.75,-2.25 -0.75,2.25 -0.75,2.25 C-0.75,2.6600000858306885 -0.4099999964237213,3 0,3 C0.4099999964237213,3 0.75,2.6600000858306885 0.75,2.25 C0.75,2.25 0.75,-2.25 0.75,-2.25 C0.75,-2.6600000858306885 0.41999998688697815,-3 0,-3z"/></g><g opacity="1" transform="matrix(1,0,0,1,248.25,253)"><path fill="rgb(18,19,49)" fill-opacity="1" d=" M0,-3 C-0.4099999964237213,-3 -0.75,-2.6600000858306885 -0.75,-2.25 C-0.75,-2.25 -0.75,2.25 -0.75,2.25 C-0.75,2.6600000858306885 -0.4099999964237213,3 0,3 C0.4099999964237213,3 0.75,2.6600000858306885 0.75,2.25 C0.75,2.25 0.75,-2.25 0.75,-2.25 C0.75,-2.6600000858306885 0.4099999964237213,-3 0,-3z"/></g></g><g class="primary design" transform="matrix(0.99872225522995,-0.05053555592894554,0.05053555592894554,0.99872225522995,-25.45831871032715,10.085128784179688)" opacity="1" style="display: block;"><g opacity="1" transform="matrix(1,0,0,1,250.00399780273438,98.95999908447266)"><path stroke-linecap="round" stroke-linejoin="round" fill-opacity="0" stroke="rgb(18,19,49)" stroke-opacity="1" stroke-width="31.3" d=" M-171.87600708007812,0 C-171.87600708007812,0 171.87600708007812,0 171.87600708007812,0"/></g><g opacity="1" transform="matrix(1,0,0,1,250.00399780273438,78.12699890136719)"><path stroke-linecap="round" stroke-linejoin="round" fill-opacity="0" stroke="rgb(18,19,49)" stroke-opacity="1" stroke-width="31.3" d=" M0,-20.83300018310547 C0,-20.83300018310547 0,20.83300018310547 0,20.83300018310547"/></g></g><g class="primary design" transform="matrix(0.966064989566803,0.2582991123199463,-0.2582991123199463,0.966064989566803,53.19551086425781,-100.60435485839844)" opacity="1" style="display: none;"><g opacity="1" transform="matrix(1,0,0,1,250.00399780273438,98.95999908447266)"><path stroke-linecap="round" stroke-linejoin="round" fill-opacity="0" stroke="rgb(18,19,49)" stroke-opacity="1" stroke-width="31.3" d=" M-171.87600708007812,0 C-171.87600708007812,0 171.87600708007812,0 171.87600708007812,0"/></g><g opacity="1" transform="matrix(1,0,0,1,250.00399780273438,78.12699890136719)"><path stroke-linecap="round" stroke-linejoin="round" fill-opacity="0" stroke="rgb(18,19,49)" stroke-opacity="1" stroke-width="31.3" d=" M0,-20.83300018310547 C0,-20.83300018310547 0,20.83300018310547 0,20.83300018310547"/></g></g><g class="primary design" transform="matrix(1,0,0,1,0.01300048828125,-0.6279983520507812)" opacity="1" style="display: none;"><g opacity="1" transform="matrix(1,0,0,1,250.00399780273438,98.95999908447266)"><path stroke-linecap="round" stroke-linejoin="round" fill-opacity="0" stroke="rgb(18,19,49)" stroke-opacity="1" stroke-width="31.3" d=" M-171.87600708007812,0 C-171.87600708007812,0 171.87600708007812,0 171.87600708007812,0"/></g><g opacity="1" transform="matrix(1,0,0,1,250.00399780273438,78.12699890136719)"><path stroke-linecap="round" stroke-linejoin="round" fill-opacity="0" stroke="rgb(18,19,49)" stroke-opacity="1" stroke-width="31.3" d=" M0,-20.83300018310547 C0,-20.83300018310547 0,20.83300018310547 0,20.83300018310547"/></g></g><g class="primary design" transform="matrix(0.9987183809280396,-0.05061205103993416,0.05061205103993416,0.9987183809280396,-25.475006103515625,10.09893798828125)" opacity="1" style="display: block;"><g opacity="1" transform="matrix(1,0,0,1,249.9980010986328,270.8349914550781)"><path stroke-linecap="round" stroke-linejoin="round" fill-opacity="0" stroke="rgb(18,19,49)" stroke-opacity="1" stroke-width="31.3" d=" M36.29600143432617,88.95899963378906 C36.29600143432617,88.95899963378906 36.29600143432617,-4.791999816894531 36.29600143432617,-4.791999816894531 M-36.45800018310547,88.54299926757812 C-36.45800018310547,88.54299926757812 -36.45800018310547,-5.206999778747559 -36.45800018310547,-5.206999778747559 M-133.79400634765625,-88.54100036621094 C-133.79400634765625,-88.54100036621094 134.66299438476562,-88.54100036621094 134.66299438476562,-88.54100036621094 M-145.83299255371094,-171.875 C-145.83299255371094,-171.875 -112.43000030517578,134.72000122070312 -112.43000030517578,134.72000122070312 C-110.12699890136719,155.86000061035156 -92.2750015258789,171.875 -71.00900268554688,171.875 C-71.00900268554688,171.875 71.01000213623047,171.875 71.01000213623047,171.875 C92.27400207519531,171.875 110.12899780273438,155.86000061035156 112.43199920654297,134.72000122070312 C112.43199920654297,134.72000122070312 145.83299255371094,-171.875 145.83299255371094,-171.875 C145.83299255371094,-171.875 -145.83299255371094,-171.875 -145.83299255371094,-171.875z"/></g></g></g><g clip-path="url(#__lottie_element_73)" transform="matrix(1,0,0,1,0,0)" opacity="0" style="display: block;"><g class="primary design" transform="matrix(20.829999923706055,0,0,20.829999923706055,-4957.498046875,-4957.498046875)" opacity="1" style="display: none;"><g opacity="1" transform="matrix(1,0,0,1,250,250)"><path fill="rgb(18,19,49)" fill-opacity="1" d=" M8.25,-8 C8.25,-8 7,-8 7,-8 C7,-8 0.75,-8 0.75,-8 C0.75,-8 0.75,-9.25 0.75,-9.25 C0.75,-9.65999984741211 0.4099999964237213,-10 0,-10 C-0.4099999964237213,-10 -0.75,-9.65999984741211 -0.75,-9.25 C-0.75,-9.25 -0.75,-8 -0.75,-8 C-0.75,-8 -7,-8 -7,-8 C-7,-8 -8.25,-8 -8.25,-8 C-8.65999984741211,-8 -9,-7.659999847412109 -9,-7.25 C-9,-6.840000152587891 -8.65999984741211,-6.5 -8.25,-6.5 C-8.25,-6.5 -7.670000076293945,-6.5 -7.670000076293945,-6.5 C-7.670000076293945,-6.5 -6.139999866485596,7.550000190734863 -6.139999866485596,7.550000190734863 C-5.989999771118164,8.949999809265137 -4.809999942779541,10 -3.4100000858306885,10 C-3.4100000858306885,10 3.4100000858306885,10 3.4100000858306885,10 C4.820000171661377,10 5.989999771118164,8.949999809265137 6.139999866485596,7.550000190734863 C6.139999866485596,7.550000190734863 7.670000076293945,-6.5 7.670000076293945,-6.5 C7.670000076293945,-6.5 8.25,-6.5 8.25,-6.5 C8.65999984741211,-6.5 9,-6.840000152587891 9,-7.25 C9,-7.659999847412109 8.65999984741211,-8 8.25,-8z M4.650000095367432,7.389999866485596 C4.579999923706055,8.020000457763672 4.050000190734863,8.5 3.4100000858306885,8.5 C3.4100000858306885,8.5 -3.4100000858306885,8.5 -3.4100000858306885,8.5 C-4.050000190734863,8.5 -4.579999923706055,8.020000457763672 -4.650000095367432,7.389999866485596 C-4.650000095367432,7.389999866485596 -5.730000019073486,-2.5 -5.730000019073486,-2.5 C-5.730000019073486,-2.5 5.730000019073486,-2.5 5.730000019073486,-2.5 C5.730000019073486,-2.5 4.650000095367432,7.389999866485596 4.650000095367432,7.389999866485596z M5.889999866485596,-4 C5.889999866485596,-4 -5.889999866485596,-4 -5.889999866485596,-4 C-5.889999866485596,-4 -6.159999847412109,-6.5 -6.159999847412109,-6.5 C-6.159999847412109,-6.5 6.170000076293945,-6.5 6.170000076293945,-6.5 C6.170000076293945,-6.5 5.889999866485596,-4 5.889999866485596,-4z"/></g><g opacity="1" transform="matrix(1,0,0,1,251.74000549316406,253.02000427246094)"><path fill="rgb(18,19,49)" fill-opacity="1" d=" M0,-3 C-0.4099999964237213,-3 -0.75,-2.6600000858306885 -0.75,-2.25 C-0.75,-2.25 -0.75,2.25 -0.75,2.25 C-0.75,2.6600000858306885 -0.4099999964237213,3 0,3 C0.4099999964237213,3 0.75,2.6600000858306885 0.75,2.25 C0.75,2.25 0.75,-2.25 0.75,-2.25 C0.75,-2.6600000858306885 0.41999998688697815,-3 0,-3z"/></g><g opacity="1" transform="matrix(1,0,0,1,248.25,253)"><path fill="rgb(18,19,49)" fill-opacity="1" d=" M0,-3 C-0.4099999964237213,-3 -0.75,-2.6600000858306885 -0.75,-2.25 C-0.75,-2.25 -0.75,2.25 -0.75,2.25 C-0.75,2.6600000858306885 -0.4099999964237213,3 0,3 C0.4099999964237213,3 0.75,2.6600000858306885 0.75,2.25 C0.75,2.25 0.75,-2.25 0.75,-2.25 C0.75,-2.6600000858306885 0.4099999964237213,-3 0,-3z"/></g></g><g class="primary design" transform="matrix(1.0000008344650269,-0.00030486995819956064,0.00030486995819956064,1.0000008344650269,-0.018377769738435745,-0.5965664386749268)" opacity="1" style="display: none;"><g opacity="1" transform="matrix(1,0,0,1,250.00399780273438,98.95999908447266)"><path stroke-linecap="round" stroke-linejoin="round" fill-opacity="0" stroke="rgb(18,19,49)" stroke-opacity="1" stroke-width="31.3" d=" M-171.87600708007812,0 C-171.87600708007812,0 171.87600708007812,0 171.87600708007812,0"/></g><g opacity="1" transform="matrix(1,0,0,1,250.00399780273438,78.12699890136719)"><path stroke-linecap="round" stroke-linejoin="round" fill-opacity="0" stroke="rgb(18,19,49)" stroke-opacity="1" stroke-width="31.3" d=" M0,-20.83300018310547 C0,-20.83300018310547 0,20.83300018310547 0,20.83300018310547"/></g></g><g class="primary design" transform="matrix(0.9984095692634583,0.05637716129422188,-0.05637716129422188,0.9984095692634583,25.356536865234375,-27.938018798828125)" opacity="1" style="display: block;"><g opacity="1" transform="matrix(1,0,0,1,249.9980010986328,270.8349914550781)"><path stroke-linecap="round" stroke-linejoin="round" fill-opacity="0" stroke="rgb(18,19,49)" stroke-opacity="1" stroke-width="31.3" d=" M36.50199890136719,78.19100189208984 C36.50199890136719,78.19100189208984 38.41699981689453,-26.304996490478516 38.41699981689453,-26.304996490478516 M-36.25199890136719,77.7280044555664 C-36.25199890136719,77.7280044555664 -38.292999267578125,-26.767995834350586 -38.292999267578125,-26.767995834350586 M-140.92100524902344,-119.65299224853516 C-140.92100524902344,-119.65299224853516 142.1320037841797,-119.65299224853516 142.1320037841797,-119.65299224853516 M-156.9980010986328,-207.83499145507812 C-156.9980010986328,-207.83499145507812 -112.43000030517578,133.93899536132812 -112.43000030517578,133.93899536132812 C-110.12699890136719,155.86000061035156 -92.2750015258789,171.875 -71.00900268554688,171.875 C-71.00900268554688,171.875 71.01000213623047,171.875 71.01000213623047,171.875 C92.27400207519531,171.875 110.12899780273438,155.86000061035156 112.43199920654297,133.93899536132812 C112.43199920654297,133.93899536132812 157.0019989013672,-207.83499145507812 157.0019989013672,-207.83499145507812 C157.0019989013672,-207.83499145507812 -156.9980010986328,-207.83499145507812 -156.9980010986328,-207.83499145507812z"/></g></g></g><g class="com" style="display: none;"><g><path/></g><g><path/></g><g><path/></g><g><path/></g><g><path/></g><g><path/></g><g><path/></g><g><path/></g><g><path/></g><g><path/></g><g><path/></g><g><path/></g></g></g></svg>